PathFileType	4	(X/Y/Z)	D:\TRACE\spotREDO_2-26-24\spot_Both_Motion_1_6-v60.trc
DataRate	CameraRate	NumFrames	NumMarkers	Units	OrigDataRate	OrigDataStartFrame	OrigNumFrames
100.00	100.00	      39	9	mm	100.00	5251	      7000
Frame#	Time	front left toe			Front right toe			aft left toe			aft right toe			Arm			FL body			FR body			AL Body			AR Body			
		X1	Y1	Z1	X2	Y2	Z2	X3	Y3	Z3	X4	Y4	Z4	X5	Y5	Z5	X6	Y6	Z6	X7	Y7	Z7	X8	Y8	Z8	X9	Y9	Z9	

5251	52.500	-32.77465	20.38611	-398.17828	416.48035	22.35447	-544.83514	101.04709	22.02662	149.07137	502.08969	25.20498	3.31561	25.44034	730.75256	-771.71863	88.74409	609.44574	-499.22931	239.07811	611.42969	-540.87646	318.12415	560.93408	353.77026	455.47150	562.60327	317.38199	
5252	52.510	-33.56569	19.93505	-398.23965	415.44421	21.90184	-544.80054	100.14502	22.14875	148.98074	500.82422	25.02223	3.08711	22.72259	726.10498	-773.25702	89.30398	608.05682	-500.00104	239.61238	609.89850	-541.49292	317.86252	561.55884	353.10889	455.13785	563.11469	317.14697	
5253	52.520	-34.64994	19.52087	-398.17609	414.15204	21.29584	-545.09766	99.12754	22.30659	148.62724	499.40375	24.85284	2.82789	20.25736	722.18671	-774.72247	89.44479	606.09186	-500.65637	239.24858	608.23682	-542.08429	318.04947	561.90619	352.45926	455.26987	563.81689	316.67477	
5254	52.530	-35.47639	19.19282	-398.05676	413.42636	20.95125	-544.92834	98.64959	22.46971	148.49052	499.40021	24.95698	2.89210	17.60175	719.22058	-776.26477	89.30018	603.96417	-501.05115	239.09419	606.19867	-542.43500	318.56497	562.71143	352.03714	455.98746	564.86279	316.06427	
5255	52.540	-36.15055	18.65592	-397.97275	412.30139	20.64284	-545.28955	97.87683	22.77827	148.38580	498.71423	24.78555	2.75432	15.81453	716.94727	-777.01190	88.86363	601.59277	-501.40280	238.93843	604.05518	-542.92365	319.30112	563.41364	351.56955	456.81265	565.53973	315.40866	
5256	52.550	-37.18561	18.33152	-397.87408	410.99774	20.03249	-545.67285	97.38937	23.04542	148.17682	497.47406	24.48728	2.31172	14.45772	715.30408	-777.59363	88.29175	599.30920	-501.62430	238.46486	602.12341	-543.44202	320.14566	564.22821	351.18637	457.50522	566.76825	314.33786	
5257	52.560	-38.08636	17.88701	-397.75577	410.35437	19.86764	-545.59937	96.45912	23.45947	148.05309	496.58554	24.29211	1.92766	13.60509	714.70190	-778.02710	87.75725	596.89764	-501.82642	238.43405	599.69537	-543.66718	321.24408	564.97595	350.89401	458.27188	567.51733	314.10538	
5258	52.570	-39.14002	17.88416	-397.57181	409.09445	19.43756	-545.49976	95.53104	23.93172	147.89995	496.52905	24.39836	1.91653	13.11572	714.61920	-778.44165	87.12518	594.67609	-501.95932	237.59703	597.64868	-544.23535	321.94687	565.32251	350.44711	459.42407	568.47083	313.31134	
5259	52.580	-39.86452	17.30207	-397.55292	408.80811	19.57280	-545.17529	94.97466	24.08209	147.82813	495.81409	24.15047	1.75081	12.87516	715.26587	-778.63873	86.62425	592.54926	-502.06567	236.76848	595.93085	-544.87592	323.88309	565.37695	349.64288	460.09546	568.77460	312.70337	
5260	52.590	-41.00934	17.39551	-397.69241	407.38705	18.55518	-545.90527	94.08077	24.18035	147.80106	494.21732	23.74313	1.29389	12.66174	715.79718	-778.64044	86.28029	590.85364	-502.22644	236.17902	594.27234	-545.16632	324.75772	565.50201	349.30414	460.76523	568.86792	312.18649	
5261	52.600	-41.63990	16.98467	-397.77661	406.67615	18.16217	-545.58655	93.14880	24.30587	147.58429	493.66428	23.60649	1.17325	12.83527	717.08502	-778.82727	86.30236	589.61554	-502.43842	236.37946	592.51740	-545.06641	325.38467	565.44489	349.00064	461.50143	568.78046	311.60654	
5262	52.610	-42.46474	17.01142	-397.75522	405.89957	17.64309	-545.66364	92.45507	24.36022	147.57683	493.14923	23.37783	1.25374	12.94100	718.18256	-778.83875	85.73419	588.66632	-502.66809	236.15685	591.77362	-545.60004	325.39621	564.95044	348.38904	461.81787	568.49365	311.25995	
5263	52.620	-43.43258	16.91389	-398.05048	404.90848	16.96547	-545.76178	91.55392	24.36125	147.59407	492.07098	23.18785	1.03529	13.45684	719.27209	-778.52960	86.45396	587.68048	-502.78613	236.21628	590.63043	-545.86456	325.61395	564.72028	348.16724	462.01517	568.16431	311.08765	
5264	52.630	-44.09109	16.81612	-398.06897	404.44827	16.64938	-545.73248	90.34708	24.64894	147.47014	490.95914	23.24229	0.99727	13.78794	720.44244	-778.26801	86.87207	587.16736	-503.07419	237.12836	589.65015	-545.67969	325.16931	565.22083	348.67422	462.09473	567.87488	310.98483	
5265	52.640	-44.65728	16.69961	-398.32333	403.82495	16.20657	-545.69263	89.60991	24.65368	147.25839	490.68173	23.32101	1.32139	14.01896	721.18591	-778.15540	87.61127	586.81714	-503.34027	237.34944	589.49280	-546.31006	325.24435	564.94556	348.66074	462.15836	567.54517	311.14001	
5266	52.650	-45.56954	16.73938	-398.57736	402.48251	15.65078	-545.93976	88.76987	24.62507	147.32379	489.42566	23.09955	1.38384	14.05137	721.72516	-777.84204	88.41322	586.59460	-503.42593	238.20016	589.13965	-546.33594	325.17603	564.53870	348.72198	462.09756	567.04535	311.38730	
5267	52.660	-46.15289	16.49346	-398.60257	402.22766	15.88814	-545.55835	87.46159	24.71873	147.15828	488.29510	23.08412	1.26237	13.71546	722.36066	-777.89117	89.15285	586.45123	-503.45663	238.85510	588.93988	-546.27960	324.97314	564.28448	348.76184	461.85318	566.49060	311.64496	
5268	52.670	-47.21959	16.81547	-398.94327	400.79797	14.90446	-545.88092	86.71573	24.63127	147.16484	487.67389	23.10975	1.50196	13.37070	722.49915	-777.48499	89.95483	586.36316	-503.65771	239.96536	588.83710	-546.07800	324.77954	564.13470	348.92627	461.81323	566.18463	311.94495	
5269	52.680	-48.11319	16.45310	-399.29727	400.39026	14.54733	-545.68976	85.33832	25.03607	147.04594	486.46317	22.70655	1.16930	13.51232	722.23743	-776.98993	90.63039	586.31702	-503.76385	241.18901	588.62811	-546.29761	324.67563	563.93909	349.15768	461.77719	565.86298	312.25751	
5270	52.690	-48.93456	16.34384	-399.40198	399.46304	14.06165	-545.90009	84.84496	25.04751	146.85530	485.40796	22.81743	1.09334	13.06871	721.63879	-776.56030	91.45908	586.28564	-503.77191	241.84869	588.70819	-546.24530	324.73367	563.67548	349.36862	461.67706	565.85187	312.59024	
5271	52.700	-49.94562	16.51211	-399.56769	398.61911	13.61188	-545.93274	84.00694	24.94060	146.75848	484.93271	22.91580	1.23555	12.63656	721.34717	-776.25024	92.01052	586.40326	-503.59851	243.12584	588.82605	-546.86163	324.84518	563.41919	349.53812	461.81680	565.60553	312.79398	
5272	52.710	-50.65463	16.32408	-399.70142	397.80356	13.27816	-545.98456	82.83852	25.39056	146.72534	484.03336	22.70848	1.27724	12.01023	720.86365	-775.95026	92.62006	586.45874	-503.53671	243.74957	588.99268	-546.52344	325.01215	563.20325	349.74408	461.89044	565.50690	312.96719	
5273	52.720	-52.31355	16.41228	-399.75174	396.83710	12.81571	-545.83356	82.15607	25.60498	146.56480	482.93082	22.55770	1.18077	11.19395	720.34930	-775.60101	93.27845	586.36163	-503.37149	244.04510	588.99219	-546.31409	325.06470	562.76227	349.61963	462.42621	565.35925	313.13275	
5274	52.730	-51.81680	15.22678	-399.88889	395.81223	12.46037	-546.03247	81.28879	25.81897	146.36972	482.31921	22.52171	1.14107	10.50726	719.67822	-775.30078	93.67249	586.18549	-503.29904	244.19504	589.00439	-545.93835	325.04962	562.68616	349.72998	462.72852	565.35956	313.31577	
5275	52.740	-53.36796	15.64904	-399.87933	394.72940	12.11982	-546.51184	80.22600	26.04765	146.38681	481.43204	22.44928	1.23662	9.81234	719.19739	-775.08618	93.81082	585.95422	-503.17621	244.14088	588.90466	-545.27008	325.74207	562.77039	350.15820	463.18106	565.39532	313.36423	
5276	52.750	-54.36972	15.38177	-400.07306	394.18832	11.77061	-546.19507	79.61235	26.15771	146.21176	480.41446	22.31881	1.06895	9.15422	718.75671	-774.87695	93.65944	585.67419	-502.90768	244.49603	588.78931	-545.05920	327.26642	561.91644	349.73508	463.80539	565.50970	313.51086	
5277	52.760	-55.03477	14.92128	-400.01932	393.09933	11.43777	-546.42151	78.74474	26.22115	146.00722	479.78809	22.28583	1.01152	8.38650	718.31818	-774.96594	94.36913	585.06219	-502.66266	244.59691	588.64526	-544.85052	327.70770	561.87018	349.86566	464.20920	565.61102	313.58826	
5278	52.770	-55.98522	14.87368	-399.87753	392.23727	11.09969	-546.39398	77.79513	26.39909	146.05659	479.11578	22.25105	0.89978	7.79847	717.80896	-774.93372	94.57124	584.64404	-502.24670	244.72737	588.37939	-544.51501	328.36520	561.80408	350.01126	464.94275	565.61011	313.66202	
5279	52.780	-57.09238	14.85442	-400.05933	391.27725	10.61434	-546.71356	77.16114	26.54540	146.09421	477.88828	21.91264	0.69455	7.31685	717.30170	-774.88586	94.72150	584.43945	-502.19601	244.90010	588.15839	-544.27740	328.96719	562.08636	350.43777	465.39767	565.59131	313.74939	
5280	52.790	-57.87217	14.71566	-400.20892	390.40558	10.10119	-546.47748	76.19257	26.75096	145.85385	476.92157	21.52678	0.47593	6.83552	717.16534	-775.01392	94.90176	584.17059	-502.00113	244.94354	587.81543	-544.22205	329.52023	561.80347	350.59033	466.04803	565.49298	313.95370	
5281	52.800	-58.44431	14.59431	-400.37390	389.45294	9.74458	-546.66357	75.45916	27.07311	145.73389	476.50424	21.51371	0.49306	6.29257	717.00000	-775.30304	95.00896	583.72314	-501.59915	245.18272	587.55634	-543.97852	329.94308	561.48303	350.82565	466.38022	565.35828	314.10254	
5282	52.810	-58.39280	16.53513	-400.32178	388.62988	9.11632	-546.81531	74.89445	27.08806	145.60233	475.71585	21.45447	0.36147	5.75471	716.86053	-775.55981	95.25501	583.19397	-501.61966	245.32732	587.37750	-543.79095	330.36707	561.05884	350.99664	466.69348	565.06744	314.30792	
5283	52.820	-56.41838	23.76849	-397.74796	388.19952	8.50391	-546.67896	74.04744	27.32826	145.44005	474.39404	21.09780	0.23439	5.25260	716.79333	-775.79395	95.47364	582.31714	-501.65375	245.58704	586.97107	-543.76483	329.95566	560.64752	351.02875	466.42679	565.04913	314.39029	
5284	52.830	-53.60431	33.80296	-393.98865	387.87738	8.07791	-546.58734	73.19772	27.43401	145.37451	473.78171	21.22489	0.33629	4.63929	716.81390	-776.04535	95.62218	581.57660	-501.84662	245.56934	586.29071	-543.85187	329.21716	560.19397	350.66364	465.97549	564.92682	314.39874	
5285	52.840	-53.53001	45.16651	-391.31848	386.80939	7.66304	-546.75684	72.44694	27.20117	145.49779	472.60681	21.28813	0.27768	3.89422	716.99463	-776.15442	95.51749	580.65125	-501.98367	245.62376	585.86121	-543.92340	329.09424	560.43207	350.95651	465.32837	565.30878	314.43237	
5286	52.850	-55.54147	57.26302	-392.22766	385.94760	7.44790	-546.79382	71.18371	27.33658	145.33594	471.59366	21.29780	0.25780	2.67412	716.68457	-776.74683	95.13876	579.84314	-502.05634	245.37230	585.11823	-544.03278	328.70697	560.43127	350.97424	464.92648	565.51801	314.50256	
5287	52.860	-58.10323	69.31729	-396.40134	384.94247	6.91529	-546.88306	70.40141	27.64679	145.10815	471.04117	21.28351	0.47643	2.63531	715.92865	-776.37878	94.82864	579.28906	-502.00381	244.94484	584.61444	-543.94611	327.98605	560.11053	350.70917	464.51138	565.50848	314.56265	
5288	52.870	-60.14603	82.05831	-400.69846	383.88620	6.69149	-546.81042	69.57533	27.87833	144.90027	470.31540	21.25433	0.21227	1.74882	715.44220	-776.40283	94.34945	579.00647	-501.90939	244.05472	584.18829	-543.92816	327.44171	560.08191	350.76459	464.03284	565.33710	314.70865	
5289	52.880	-59.79321	93.57961	-403.16745	382.91043	6.46643	-547.05066	68.37987	27.97962	145.00787	468.88293	20.98538	0.04491	0.01849	715.53333	-776.97760	93.57241	578.95282	-501.77808	243.26450	584.18591	-543.84503	327.02426	560.23352	351.26376	463.47180	565.18420	314.74234	
